<?xml version="1.0" encoding="UTF-8"?>
<svg id="Layer_1" data-name="Layer 1" xmlns="http://www.w3.org/2000/svg" viewBox="0 0 372.27 40">
  <defs>
    <style>
      .cls-1 {
        fill: #1818cf;
      }

      .cls-1, .cls-2 {
        stroke-width: 0px;
      }

      .cls-2 {
        fill: #fff;
      }
    </style>
  </defs>
  <rect class="cls-1" width="372.27" height="40"/>
  <g>
    <g>
      <path class="cls-2" d="M0,11.7h11.88v3.94h-6.91v3.26h6.26v3.73h-6.26v5.99H0V11.7Z"/>
      <path class="cls-2" d="M13.42,11.7h5.13l1.95,10.35h.09l2.4-10.35h4.08l2.4,10.35h.09l1.95-10.35h5.13l-4.36,16.91h-4.92l-2.29-9.11h-.09l-2.29,9.11h-4.92l-4.36-16.91Z"/>
      <path class="cls-2" d="M38.38,25.22l6-4.97c2.07-1.71,2.45-2.45,2.45-3.39v-.02c0-1.04-.81-1.78-1.98-1.78-1.35,0-2.13.83-2.23,2.05v.15h-4.54v-.12c0-3.43,2.75-5.75,6.76-5.75s6.76,2.04,6.76,5.14v.02c0,2.26-1.09,3.53-3.81,5.72l-3.07,2.48v.09h7.08v3.75h-13.43v-3.39Z"/>
      <path class="cls-2" d="M62.3,25.92h-8.32v-4l6.14-10.23h6.87v10.42h2.07v3.81h-2.07v2.68h-4.69v-2.68ZM62.44,22.31v-7.3h-.09l-4.3,7.16v.14h4.39Z"/>
    </g>
    <path class="cls-2" d="M89.06,19.99c0-3.49,2.88-6.38,6.39-6.38s6.39,2.88,6.39,6.38-2.89,6.4-6.39,6.4-6.39-2.92-6.39-6.4Z"/>
    <path class="cls-2" d="M359.5,19.99c0-3.49,2.88-6.38,6.39-6.38s6.39,2.88,6.39,6.38-2.89,6.4-6.39,6.4-6.39-2.92-6.39-6.4Z"/>
    <g>
      <g>
        <path class="cls-2" d="M121.83,11.54h4.14l5.98,8.65h.08v-8.65h4.97v16.91h-4.09l-6.02-8.79h-.08v8.79h-4.97V11.54Z"/>
        <path class="cls-2" d="M139.82,11.54h11.93v3.94h-6.96v2.7h6.53v3.66h-6.53v2.68h6.96v3.94h-11.93V11.54Z"/>
        <path class="cls-2" d="M153.85,11.54h5.13l1.95,10.35h.09l2.4-10.35h4.08l2.4,10.35h.09l1.95-10.35h5.13l-4.36,16.91h-4.92l-2.29-9.11h-.09l-2.29,9.11h-4.92l-4.36-16.91Z"/>
      </g>
      <g>
        <path class="cls-2" d="M183.83,19.99h0c0-5.59,3.22-8.75,8.38-8.75,4.7,0,7.85,3.05,7.85,7.02v.11h-4.76v-.14c-.15-1.68-1.25-2.93-3.09-2.93-2.04,0-3.32,1.71-3.32,4.68h0c0,3.02,1.28,4.73,3.33,4.73,1.71,0,2.93-1.16,3.09-2.94v-.13h4.77v.13c0,3.96-3.22,7-7.88,7-5.19,0-8.38-3.19-8.38-8.77Z"/>
        <path class="cls-2" d="M202.03,20.01v-.02c0-5.39,3.29-8.74,8.51-8.74s8.53,3.36,8.53,8.74v.02c0,5.39-3.27,8.75-8.53,8.75s-8.51-3.35-8.51-8.75ZM214.01,20.01v-.02c0-2.91-1.36-4.69-3.47-4.69s-3.45,1.77-3.45,4.69v.02c0,2.92,1.36,4.7,3.45,4.7s3.47-1.82,3.47-4.7Z"/>
        <path class="cls-2" d="M221.48,11.54h4.97v12.97h6.63v3.94h-11.6V11.54Z"/>
        <path class="cls-2" d="M235.44,11.54h4.97v12.97h6.63v3.94h-11.6V11.54Z"/>
        <path class="cls-2" d="M249.4,11.54h11.93v3.94h-6.96v2.7h6.53v3.66h-6.53v2.68h6.96v3.94h-11.93V11.54Z"/>
        <path class="cls-2" d="M263.72,19.99h0c0-5.59,3.22-8.75,8.38-8.75,4.7,0,7.85,3.05,7.85,7.02v.11h-4.76v-.14c-.15-1.68-1.25-2.93-3.09-2.93-2.04,0-3.32,1.71-3.32,4.68h0c0,3.02,1.28,4.73,3.33,4.73,1.71,0,2.93-1.16,3.09-2.94v-.13h4.77v.13c0,3.96-3.22,7-7.88,7-5.19,0-8.38-3.19-8.38-8.77Z"/>
        <path class="cls-2" d="M285.9,15.48h-4.45v-3.94h13.88v3.94h-4.45v12.97h-4.97v-12.97Z"/>
        <path class="cls-2" d="M297.5,11.54h4.97v16.91h-4.97V11.54Z"/>
        <path class="cls-2" d="M304.88,20.01v-.02c0-5.39,3.29-8.74,8.51-8.74s8.53,3.36,8.53,8.74v.02c0,5.39-3.27,8.75-8.53,8.75s-8.51-3.35-8.51-8.75ZM316.86,20.01v-.02c0-2.91-1.36-4.69-3.47-4.69s-3.45,1.77-3.45,4.69v.02c0,2.92,1.36,4.7,3.45,4.7s3.47-1.82,3.47-4.7Z"/>
        <path class="cls-2" d="M324.34,11.54h4.14l5.98,8.65h.08v-8.65h4.97v16.91h-4.09l-6.02-8.79h-.08v8.79h-4.97V11.54Z"/>
      </g>
    </g>
  </g>
</svg>